# xmcd
#
# Track frame offsets:
#	150
#	10242
#	26203
#	35812
#	50997
#	66337
#	81704
#	94815
#	106845
#	122797
#	136180
#	147269
#	160217
#	171261
#	182969
#	201380
#	216845
#	229546
#	242776
#	257001
#	271096
#	280028
#	290587
#	307911
#	319355
#	337868
#
# Disc length: 4728 seconds
#
# Revision: 1
# Processed by: cddbd v1.5.1PL0 Copyright (c) Steve Scherf et al.
# Submitted via: EasyCDDAExtractor 6.2.0.3
#
DISCID=9112761a
DTITLE=Various Artist - Anos Dourados
DYEAR=2005
DGENRE=Oldies
TTITLE0=Jerry Adriani - És Meu Amor
TTITLE1=Moacyr Franco - Eu Nunca Mais Vou Te Esquecer
TTITLE2=Celly Campello - Estúpido Cupido
TTITLE3=Barros De Alencar - Diante Do Mar
TTITLE4=Odair José - Minhas Coisas
TTITLE5=Fenando Mendes - Recordações
TTITLE6=Celly Campello - Banho De Lua
TTITLE7=José Roberto - Lágrimas Nos Olhos
TTITLE8=Nubia Lafayette - Mata-Me Depressa
TTITLE9=Diana - Fatalidade
TTITLE10=Silvinha - Splish Splash
TTITLE11=Baltazar - Se Ainda Existe Amor
TTITLE12=Agnaldo Timóteo - Os Verdes Campos Da Minha Terra
TTITLE13=Lilian E Ed Wilson - Pobre Menina
TTITLE14=The Fevers - Deus
TTITLE15=Gilberto - Eu Não Tenho Culpa De Não Gostar De Você
TTITLE16=Jerry Adriani - Doce Doce Amor
TTITLE17=Raul Seixas - Medo Da Chuva
TTITLE18=Diana - Ainda Queima A Esperança
TTITLE19=Trio Esperança - Filme Triste
TTITLE20=Odair José - É Imenso O Meu Amor
TTITLE21=Wanderléia - Para O Casamento
TTITLE22=Odair José - Para Que Não Me Esqueças
TTITLE23=Leno - Ritmo Da Chuva
TTITLE24=Eduardo Araújo - Rua Augusta
TTITLE25=Donnie Von - A Praça
EXTD=by Flávio Abrahão Biasuz\n
EXTT0=
EXTT1=
EXTT2=
EXTT3=
EXTT4=
EXTT5=
EXTT6=
EXTT7=
EXTT8=
EXTT9=
EXTT10=
EXTT11=
EXTT12=
EXTT13=
EXTT14=
EXTT15=
EXTT16=
EXTT17=
EXTT18=
EXTT19=
EXTT20=
EXTT21=
EXTT22=
EXTT23=
EXTT24=
EXTT25=
PLAYORDER=
